<svg width="35" height="35" viewBox="0 0 100 100" fill="none" xmlns="http://www.w3.org/2000/svg">
<path d="M87.5 33.3333C86.6583 33.3333 67.2917 33.4541 50 41.6999C32.7083 33.4541 13.3416 33.3333 12.5 33.3333C11.3949 33.3333 10.3351 33.7722 9.5537 34.5536C8.7723 35.335 8.33331 36.3949 8.33331 37.4999V78.6791C8.33332 79.2382 8.44584 79.7915 8.66416 80.3062C8.88249 80.8209 9.20217 81.2864 9.60415 81.6749C10.4166 82.4583 11.6041 82.9458 12.6416 82.8416L13.1708 82.8374C16.0166 82.8374 31.0708 83.2458 48.2375 91.2749C48.3041 91.3083 48.3791 91.2958 48.4458 91.3208C48.9416 91.5249 49.4625 91.6666 50 91.6666C50.5375 91.6666 51.0583 91.5249 51.5583 91.3208C51.625 91.2958 51.7 91.3083 51.7666 91.2749C68.9333 83.2416 83.9875 82.8374 86.8333 82.8374L87.3625 82.8416C88.3541 82.9458 89.5833 82.4583 90.4 81.6749C91.2083 80.8874 91.6667 79.8041 91.6667 78.6791V37.4999C91.6667 36.3949 91.2277 35.335 90.4463 34.5536C89.6649 33.7722 88.6051 33.3333 87.5 33.3333ZM16.6666 41.8708C22.8541 42.3333 34.9208 43.8708 45.8333 48.9208V81.1791C33.3333 76.2833 22.5416 74.9541 16.6666 74.6124V41.8708ZM83.3333 74.6124C77.4583 74.9541 66.6667 76.2833 54.1666 81.1791V48.9208C65.0792 43.8708 77.1458 42.3333 83.3333 41.8708V74.6124Z" fill="#FFC300"/>
<path d="M50 33.3333C56.9036 33.3333 62.5 27.7368 62.5 20.8333C62.5 13.9297 56.9036 8.33325 50 8.33325C43.0964 8.33325 37.5 13.9297 37.5 20.8333C37.5 27.7368 43.0964 33.3333 50 33.3333Z" fill="#FFC300"/>
</svg>
