<svg width="50" height="50" viewBox="0 0 144 154" fill="none" xmlns="http://www.w3.org/2000/svg">
<path d="M120 19.25H24C17.382 19.25 12 25.0057 12 32.0833V121.917C12 128.994 17.382 134.75 24 134.75H120C126.618 134.75 132 128.994 132 121.917V32.0833C132 25.0057 126.618 19.25 120 19.25ZM24 121.917V44.9167H120L120.006 121.917H24Z" fill="#FFD60A"/>
<path d="M94.2421 68.7033L85.7581 59.6301L72.0001 74.3435L58.2421 59.6301L49.7581 68.7033L63.5161 83.4167L49.7581 98.1301L58.2421 107.203L72.0001 92.4899L85.7581 107.203L94.2421 98.1301L80.4841 83.4167L94.2421 68.7033Z" fill="#FFD60A"/>
</svg>
