<svg width="24" height="24" viewBox="0 0 35 35" fill="none" xmlns="http://www.w3.org/2000/svg">
<path d="M17.5 6.70104C15.911 5.23994 13.8311 4.42902 11.6725 4.42896C10.5299 4.43014 9.39887 4.65727 8.34444 5.09726C7.29001 5.53726 6.33301 6.18143 5.52849 6.99271C2.09703 10.4387 2.09849 15.8287 5.53141 19.2602L16.2239 29.9527C16.4718 30.3887 16.9502 30.6702 17.5 30.6702C17.7257 30.668 17.9478 30.6129 18.1484 30.5093C18.349 30.4057 18.5225 30.2565 18.655 30.0737L29.4685 19.2602C32.9014 15.8273 32.9014 10.4387 29.4656 6.98687C28.6615 6.17708 27.7052 5.53422 26.6518 5.09524C25.5984 4.65626 24.4687 4.42983 23.3275 4.42896C21.1689 4.42931 19.0891 5.24019 17.5 6.70104V6.70104ZM27.4035 9.04896C29.6829 11.34 29.6843 14.9187 27.4064 17.1981L17.5 27.1046L7.59349 17.1981C5.31558 14.9187 5.31704 11.34 7.59058 9.05479C8.69891 7.95229 10.1485 7.34562 11.6725 7.34562C13.1964 7.34562 14.6402 7.95229 15.7397 9.05187L16.4689 9.78104C16.6042 9.91658 16.7649 10.0241 16.9419 10.0975C17.1188 10.1709 17.3084 10.2086 17.5 10.2086C17.6915 10.2086 17.8811 10.1709 18.058 10.0975C18.235 10.0241 18.3957 9.91658 18.531 9.78104L19.2602 9.05187C21.4652 6.85125 25.2014 6.85708 27.4035 9.04896V9.04896Z" fill="#DB1212"/>
</svg>
