<svg width="30" height="30" viewBox="0 0 125 114" fill="none" xmlns="http://www.w3.org/2000/svg">
<path d="M15.6249 61.75H20.8333V95C20.8333 100.239 25.5052 104.5 31.2499 104.5H93.75C99.4947 104.5 104.167 100.239 104.167 95V61.75H109.375C110.405 61.7498 111.412 61.4711 112.268 60.9491C113.124 60.4272 113.792 59.6854 114.186 58.8176C114.58 57.9498 114.683 56.9949 114.482 56.0736C114.281 55.1523 113.785 54.306 113.057 53.6417L66.1822 10.8917C65.699 10.4503 65.125 10.1 64.4931 9.86102C63.8613 9.62205 63.184 9.49904 62.5 9.49904C61.8159 9.49904 61.1386 9.62205 60.5068 9.86102C59.8749 10.1 59.3009 10.4503 58.8177 10.8917L11.9427 53.6417C11.2145 54.306 10.7186 55.1523 10.5177 56.0736C10.3169 56.9949 10.42 57.9498 10.8141 58.8176C11.2082 59.6854 11.8756 60.4272 12.7319 60.9491C13.5882 61.4711 14.595 61.7498 15.6249 61.75ZM52.0833 95V71.25H72.9166V95H52.0833ZM62.5 20.9665L93.75 49.4665V71.25L93.7552 95H83.3333V71.25C83.3333 66.0107 78.6614 61.75 72.9166 61.75H52.0833C46.3385 61.75 41.6666 66.0107 41.6666 71.25V95H31.2499V49.4665L62.5 20.9665Z" fill="#FFD60A"/>
</svg>
