<svg width="30" height="30" viewBox="0 0 144 154" fill="none" xmlns="http://www.w3.org/2000/svg">
<path d="M42 109.083C48.9118 109.073 55.6089 106.515 60.9624 101.84C66.3158 97.1641 69.9979 90.6574 71.388 83.4167H84V96.25H96V83.4167H108V102.667H120V83.4167H126V70.5834H71.388C69.9979 63.3426 66.3158 56.836 60.9624 52.1605C55.6089 47.4849 48.9118 44.9266 42 44.9167C25.458 44.9167 12 59.3093 12 77C12 94.6908 25.458 109.083 42 109.083ZM42 57.75C51.924 57.75 60 66.3869 60 77C60 87.6132 51.924 96.25 42 96.25C32.076 96.25 24 87.6132 24 77C24 66.3869 32.076 57.75 42 57.75Z" fill="#FFD60A"/>
</svg>
