<svg width="30" height="30" viewBox="0 0 125 142" fill="none" xmlns="http://www.w3.org/2000/svg">
<path d="M114.464 81.5494L104.047 28.2994C103.788 26.9856 103.143 25.811 102.218 24.969C101.293 24.127 100.144 23.6677 98.9583 23.6667H83.3333V35.5H94.7812L99.7864 61.0955C97.0406 59.8336 94.1078 59.1789 91.1458 59.1667C80.9739 59.1667 72.3802 66.6098 69.1458 76.9167H55.8489C52.6145 66.6098 44.0208 59.1667 33.8489 59.1667C30.7916 59.1667 27.8854 59.8826 25.2083 61.0955L30.2187 35.5H41.6666V23.6667H26.0416C24.8568 23.6669 23.7075 24.126 22.7833 24.9683C21.8592 25.8105 21.2154 26.9855 20.9583 28.2994L10.5416 81.5494L10.7864 81.6145C10.5677 82.9938 10.444 84.3905 10.4166 85.7917C10.4166 100.471 20.9323 112.417 33.8541 112.417C45.8854 112.417 55.7135 102.027 57.026 88.75H67.9739C69.2864 102.027 79.1145 112.417 91.1458 112.417C104.068 112.417 114.583 100.471 114.583 85.7917C114.583 84.3598 114.406 82.9812 114.214 81.6145L114.464 81.5494V81.5494ZM33.8541 100.583C26.677 100.583 20.8333 93.9448 20.8333 85.7917C20.8333 77.6385 26.677 71 33.8541 71C41.0312 71 46.875 77.6385 46.875 85.7917C46.875 93.9448 41.0312 100.583 33.8541 100.583ZM91.1458 100.583C83.9635 100.583 78.125 93.9448 78.125 85.7917C78.125 77.6385 83.9635 71 91.1458 71C98.3281 71 104.167 77.6385 104.167 85.7917C104.167 93.9448 98.3281 100.583 91.1458 100.583Z" fill="#FFD60A"/>
</svg>
