<svg width="30" height="30" viewBox="0 0 125 119" fill="none" xmlns="http://www.w3.org/2000/svg">
<path d="M62.5 9.91666C48.7411 10.0837 35.5952 15.3613 25.8655 24.624C16.1358 33.8867 10.5921 46.4016 10.4166 59.5C10.4809 67.1305 12.3943 74.6438 16.0078 81.4551C19.6213 88.2664 24.8374 94.1918 31.25 98.77V99.1667H31.7708C40.5895 105.6 51.3898 109.087 62.5 109.087C73.6101 109.087 84.4105 105.6 93.2291 99.1667H93.75V98.77C100.163 94.1918 105.379 88.2664 108.992 81.4551C112.606 74.6438 114.519 67.1305 114.583 59.5C114.408 46.4016 108.864 33.8867 99.1344 24.624C89.4047 15.3613 76.2588 10.0837 62.5 9.91666V9.91666ZM42.0312 93.8613C42.7916 90.5463 44.7195 87.5785 47.4952 85.4501C50.2709 83.3217 53.7275 82.1606 57.2916 82.1596H67.7083C71.2724 82.1606 74.729 83.3217 77.5047 85.4501C80.2804 87.5785 82.2084 90.5463 82.9687 93.8613C76.7649 97.3361 69.6979 99.1684 62.5 99.1684C55.302 99.1684 48.235 97.3361 42.0312 93.8613V93.8613ZM91.7187 87.465C89.7376 82.9576 86.4016 79.108 82.1298 76.3998C77.8579 73.6915 72.8407 72.2454 67.7083 72.2429H57.2916C52.1592 72.2454 47.142 73.6915 42.8702 76.3998C38.5983 79.108 35.2623 82.9576 33.2812 87.465C29.3784 83.8107 26.2703 79.46 24.1344 74.6616C21.9985 69.8633 20.8768 64.7112 20.8333 59.5C20.9684 49.0197 25.4016 39.0049 33.1865 31.5936C40.9715 24.1824 51.4912 19.9619 62.5 19.8333C73.5087 19.9619 84.0284 24.1824 91.8134 31.5936C99.5983 39.0049 104.032 49.0197 104.167 59.5C104.123 64.7112 103.001 69.8633 100.866 74.6616C98.7296 79.46 95.6215 83.8107 91.7187 87.465V87.465Z" fill="#FFD60A"/>
<path d="M62.5 29.75C59.7466 29.6889 57.0088 30.1602 54.4522 31.1353C51.8955 32.1104 49.5733 33.5691 47.6258 35.4231C45.6783 37.2771 44.1461 39.4879 43.1218 41.9218C42.0975 44.3557 41.6025 46.9621 41.6667 49.5833C41.6025 52.2046 42.0975 54.811 43.1218 57.2449C44.1461 59.6788 45.6783 61.8896 47.6258 63.7436C49.5733 65.5976 51.8955 67.0563 54.4522 68.0314C57.0088 69.0065 59.7466 69.4777 62.5 69.4167C65.2534 69.4777 67.9912 69.0065 70.5478 68.0314C73.1044 67.0563 75.4267 65.5976 77.3742 63.7436C79.3217 61.8896 80.8539 59.6788 81.8782 57.2449C82.9024 54.811 83.3975 52.2046 83.3333 49.5833C83.3975 46.9621 82.9024 44.3557 81.8782 41.9218C80.8539 39.4879 79.3217 37.2771 77.3742 35.4231C75.4267 33.5691 73.1044 32.1104 70.5478 31.1353C67.9912 30.1602 65.2534 29.6889 62.5 29.75V29.75ZM62.5 59.5C61.1143 59.5638 59.7299 59.3509 58.4358 58.8751C57.1417 58.3993 55.9664 57.6711 54.9854 56.7372C54.0044 55.8034 53.2395 54.6845 52.7397 53.4524C52.2399 52.2204 52.0163 50.9025 52.0833 49.5833C52.0163 48.2642 52.2399 46.9463 52.7397 45.7142C53.2395 44.4822 54.0044 43.3633 54.9854 42.4294C55.9664 41.4956 57.1417 40.7673 58.4358 40.2915C59.7299 39.8157 61.1143 39.6029 62.5 39.6667C63.8857 39.6029 65.27 39.8157 66.5642 40.2915C67.8583 40.7673 69.0336 41.4956 70.0146 42.4294C70.9956 43.3633 71.7605 44.4822 72.2603 45.7142C72.7601 46.9463 72.9836 48.2642 72.9167 49.5833C72.9836 50.9025 72.7601 52.2204 72.2603 53.4524C71.7605 54.6845 70.9956 55.8034 70.0146 56.7372C69.0336 57.6711 67.8583 58.3993 66.5642 58.8751C65.27 59.3509 63.8857 59.5638 62.5 59.5Z" fill="#FFD60A"/>
</svg>
